<svg xmlns="http://www.w3.org/2000/svg" width="512" height="512" viewBox="0 0 512 512" version="1.1"><path d="M 190.020 155.060 C 165.580 156.841, 127.498 162.941, 112 167.557 C 104.481 169.797, 97.644 176.747, 96.184 183.635 C 92.770 199.743, 106.177 213.477, 122 210.080 C 162.434 201.399, 191.429 197.998, 224.950 198.002 C 280.949 198.011, 327.474 208.038, 370 229.266 C 387.212 237.857, 388.919 238.499, 394.512 238.484 C 410.435 238.443, 420.457 222.414, 413.737 207.736 C 410.644 200.981, 407.908 198.881, 391.500 190.667 C 353.526 171.658, 320.699 162.183, 273 156.467 C 256.925 154.541, 208.433 153.719, 190.020 155.060 M 194.500 232.668 C 175.173 234.270, 153.805 237.468, 137.803 241.152 C 130.953 242.729, 127.972 243.964, 125.260 246.345 C 114.280 255.986, 118.364 273.224, 132.557 277.143 C 135.315 277.905, 139.174 277.470, 150.778 275.088 C 178.848 269.327, 187.541 268.532, 222.500 268.528 C 248.154 268.525, 256.880 268.880, 266.500 270.318 C 294.836 274.552, 320.114 282.274, 342.765 293.618 C 358.390 301.443, 361.348 302.135, 367.746 299.462 C 377.524 295.376, 381.536 285.119, 377.119 275.500 C 374.683 270.194, 373.459 269.243, 360 262.204 C 320.315 241.446, 275.821 231.778, 221.778 232.168 C 208.975 232.261, 196.700 232.485, 194.500 232.668 M 200.216 300.076 C 178.169 301.275, 147.482 306.245, 140.013 309.828 C 129.315 314.959, 129.319 330.754, 140.020 336.305 C 144.148 338.447, 146.976 338.269, 166 334.671 C 185.909 330.906, 203.431 329.641, 226.500 330.303 C 263.940 331.378, 291.740 337.834, 320.058 352.029 C 332.606 358.319, 336.795 359.199, 341.800 356.595 C 351.436 351.581, 353.398 339.583, 345.769 332.315 C 342.052 328.773, 326.929 321.016, 313.247 315.633 C 291.992 307.270, 264.524 301.714, 236 300.006 C 226.925 299.462, 218.375 299.081, 217 299.159 C 215.625 299.236, 208.072 299.649, 200.216 300.076" stroke="none" fill="#fafafc" fill-rule="evenodd"/><path d="M 223.564 1.625 C 189.116 6.037, 148.947 20.301, 120.811 38.112 C 88.146 58.791, 58.791 88.146, 38.112 120.811 C 24.679 142.030, 11.372 174.858, 5.607 201 C -0.045 226.628, -1.671 260.991, 1.536 287.030 C 10.196 357.364, 47.940 421.458, 105.368 463.352 C 132.560 483.189, 167.874 499.081, 201.066 506.419 C 226.181 511.971, 259.987 513.582, 286.441 510.488 C 349.786 503.078, 410.477 470.394, 451.687 421.500 C 483.128 384.195, 505.455 333.267, 510.283 287.838 C 510.916 281.877, 511.787 277, 512.217 277 C 512.648 277, 512.964 266.988, 512.921 254.750 C 512.878 242.512, 512.566 233.175, 512.229 234 C 511.891 234.825, 511.041 230.441, 510.338 224.258 C 505.304 179.926, 485.352 132.642, 456.219 96 C 446.540 83.825, 428.152 65.440, 416 55.787 C 378.526 26.019, 334.104 7.332, 287.030 1.536 C 271.561 -0.369, 238.774 -0.323, 223.564 1.625 M 190.020 155.060 C 165.580 156.841, 127.498 162.941, 112 167.557 C 104.481 169.797, 97.644 176.747, 96.184 183.635 C 92.770 199.743, 106.177 213.477, 122 210.080 C 162.434 201.399, 191.429 197.998, 224.950 198.002 C 280.949 198.011, 327.474 208.038, 370 229.266 C 387.212 237.857, 388.919 238.499, 394.512 238.484 C 410.435 238.443, 420.457 222.414, 413.737 207.736 C 410.644 200.981, 407.908 198.881, 391.500 190.667 C 353.526 171.658, 320.699 162.183, 273 156.467 C 256.925 154.541, 208.433 153.719, 190.020 155.060 M 194.500 232.668 C 175.173 234.270, 153.805 237.468, 137.803 241.152 C 130.953 242.729, 127.972 243.964, 125.260 246.345 C 114.280 255.986, 118.364 273.224, 132.557 277.143 C 135.315 277.905, 139.174 277.470, 150.778 275.088 C 178.848 269.327, 187.541 268.532, 222.500 268.528 C 248.154 268.525, 256.880 268.880, 266.500 270.318 C 294.836 274.552, 320.114 282.274, 342.765 293.618 C 358.390 301.443, 361.348 302.135, 367.746 299.462 C 377.524 295.376, 381.536 285.119, 377.119 275.500 C 374.683 270.194, 373.459 269.243, 360 262.204 C 320.315 241.446, 275.821 231.778, 221.778 232.168 C 208.975 232.261, 196.700 232.485, 194.500 232.668 M 0.428 256 C 0.428 268.375, 0.571 273.438, 0.747 267.250 C 0.922 261.063, 0.922 250.938, 0.747 244.750 C 0.571 238.563, 0.428 243.625, 0.428 256 M 200.216 300.076 C 178.169 301.275, 147.482 306.245, 140.013 309.828 C 129.315 314.959, 129.319 330.754, 140.020 336.305 C 144.148 338.447, 146.976 338.269, 166 334.671 C 185.909 330.906, 203.431 329.641, 226.500 330.303 C 263.940 331.378, 291.740 337.834, 320.058 352.029 C 332.606 358.319, 336.795 359.199, 341.800 356.595 C 351.436 351.581, 353.398 339.583, 345.769 332.315 C 342.052 328.773, 326.929 321.016, 313.247 315.633 C 291.992 307.270, 264.524 301.714, 236 300.006 C 226.925 299.462, 218.375 299.081, 217 299.159 C 215.625 299.236, 208.072 299.649, 200.216 300.076" stroke="none" fill="#1c33f4" fill-rule="evenodd"/></svg>